<svg width="23" height="23" viewBox="0 0 23 23" fill="none" xmlns="http://www.w3.org/2000/svg">
<path fill-rule="evenodd" clip-rule="evenodd" d="M0 11.5C0 5.1741 5.1741 0 11.5 0C17.8259 0 23 5.1741 23 11.5C23 17.8259 17.8259 23 11.5 23C5.1741 23 0 17.8259 0 11.5ZM11.5 0.784091C5.60715 0.784091 0.784091 5.60715 0.784091 11.5C0.784091 17.3929 5.60715 22.2159 11.5 22.2159C17.3929 22.2159 22.2159 17.3929 22.2159 11.5C22.2159 5.60715 17.3929 0.784091 11.5 0.784091Z" fill="white"/>
<path fill-rule="evenodd" clip-rule="evenodd" d="M6.46875 11.5003C6.46875 11.1755 6.73204 10.9123 7.05682 10.9123H15.9432C16.268 10.9123 16.5312 11.1755 16.5312 11.5003C16.5312 11.8251 16.268 12.0884 15.9432 12.0884H7.05682C6.73204 12.0884 6.46875 11.8251 6.46875 11.5003Z" fill="white"/>
<path fill-rule="evenodd" clip-rule="evenodd" d="M11.4997 6.46875C11.8245 6.46875 12.0878 6.73204 12.0878 7.05682V15.9432C12.0878 16.268 11.8245 16.5312 11.4997 16.5312C11.1749 16.5312 10.9116 16.268 10.9116 15.9432V7.05682C10.9116 6.73204 11.1749 6.46875 11.4997 6.46875Z" fill="white"/>
</svg>
