<svg width="16" height="16" viewBox="0 0 16 16" fill="none" xmlns="http://www.w3.org/2000/svg">
<path fill-rule="evenodd" clip-rule="evenodd" d="M11.3963 0.0228294C12.3985 -0.105326 13.4124 0.304504 14.4427 1.2739L14.4439 1.27502C15.4776 2.25261 15.9482 3.24429 15.8776 4.25434C15.8094 5.23035 15.2435 6.05644 14.5983 6.73808M14.5983 6.73808L7.54967 14.1989C7.35096 14.4152 7.08339 14.5985 6.82974 14.7341C6.57283 14.8715 6.27565 14.9891 5.99667 15.0387L5.99238 15.0394L3.22747 15.5117C2.55698 15.6273 1.91404 15.4597 1.45603 15.0254C0.998668 14.5916 0.796563 13.9591 0.871435 13.2853L0.871654 13.2833L1.19085 10.4882C1.22793 10.2101 1.33119 9.90926 1.45291 9.64824C1.5742 9.38817 1.73968 9.11239 1.93551 8.90392L1.93677 8.90259L8.98895 1.4381C9.6345 0.756186 10.4278 0.14667 11.3963 0.0228294M9.92508 2.32342L2.8746 9.7861C2.80419 9.86123 2.70747 10.0066 2.62064 10.1928C2.53537 10.3756 2.48416 10.5448 2.46881 10.6535L2.15202 13.4276C2.1155 13.7582 2.21816 13.9724 2.34264 14.0905C2.46659 14.208 2.68262 14.2981 3.00855 14.2419L3.00954 14.2418L5.77295 13.7698C5.88056 13.7503 6.04636 13.6919 6.22224 13.5979C6.40055 13.5025 6.53468 13.3997 6.60182 13.3261L6.60952 13.3177L13.6618 5.85323C14.2361 5.2465 14.5553 4.69362 14.5923 4.1645C14.6269 3.66933 14.4233 3.02918 13.5593 2.21183C12.7 1.40354 12.052 1.23793 11.5597 1.30088C11.0336 1.36815 10.4992 1.71709 9.92508 2.32342Z" fill="#673AB7"/>
</svg>
