<svg width="16" height="16" viewBox="0 0 16 16" fill="none" xmlns="http://www.w3.org/2000/svg">
<path fill-rule="evenodd" clip-rule="evenodd" d="M11.3963 0.02286C12.3985 -0.105296 13.4124 0.304534 14.4427 1.27393L14.4439 1.27505C15.4776 2.25264 15.9482 3.24432 15.8776 4.25437C15.8094 5.23038 15.2435 6.05647 14.5983 6.73811M14.5983 6.73811L7.54967 14.1989C7.35096 14.4153 7.08339 14.5985 6.82974 14.7342C6.57283 14.8715 6.27565 14.9891 5.99667 15.0387L5.99238 15.0395L3.22747 15.5117C2.55698 15.6273 1.91404 15.4597 1.45603 15.0254C0.998668 14.5917 0.796563 13.9592 0.871435 13.2853L0.871654 13.2834L1.19085 10.4882C1.22793 10.2102 1.33119 9.90929 1.45291 9.64828C1.5742 9.3882 1.73968 9.11242 1.93551 8.90396L1.93677 8.90262L8.98895 1.43813C9.6345 0.756216 10.4278 0.146701 11.3963 0.02286M9.92508 2.32345L2.8746 9.78613C2.80419 9.86126 2.70747 10.0066 2.62064 10.1928C2.53537 10.3757 2.48416 10.5448 2.46881 10.6535L2.15202 13.4276C2.1155 13.7582 2.21816 13.9724 2.34264 14.0905C2.46659 14.208 2.68262 14.2982 3.00855 14.242L3.00954 14.2418L5.77295 13.7698C5.88056 13.7503 6.04636 13.6919 6.22224 13.5979C6.40055 13.5026 6.53468 13.3998 6.60182 13.3261L6.60952 13.3177L13.6618 5.85326C14.2361 5.24653 14.5553 4.69365 14.5923 4.16453C14.6269 3.66936 14.4233 3.02921 13.5593 2.21186C12.7 1.40357 12.052 1.23796 11.5597 1.30091C11.0336 1.36818 10.4992 1.71712 9.92508 2.32345Z" fill="#673AB7"/>
</svg>
