<svg width="16" height="16" viewBox="0 0 16 16" fill="none" xmlns="http://www.w3.org/2000/svg">
<path fill-rule="evenodd" clip-rule="evenodd" d="M11.3965 0.0228294C12.3987 -0.105326 13.4126 0.304504 14.4429 1.2739L14.4441 1.27502C15.4778 2.25261 15.9484 3.24429 15.8778 4.25434C15.8096 5.23035 15.2438 6.05644 14.5986 6.73808M14.5986 6.73808L7.54991 14.1989C7.3512 14.4152 7.08364 14.5985 6.82998 14.7341C6.57307 14.8715 6.2759 14.9891 5.99691 15.0387L5.99262 15.0394L3.22771 15.5117C2.55723 15.6273 1.91428 15.4597 1.45628 15.0254C0.998912 14.5916 0.796807 13.9591 0.871679 13.2853L0.871899 13.2833L1.1911 10.4882C1.22817 10.2101 1.33143 9.90926 1.45315 9.64824C1.57444 9.38817 1.73992 9.11239 1.93576 8.90392L1.93701 8.90259L8.98919 1.4381C9.63474 0.756186 10.428 0.14667 11.3965 0.0228294M9.92533 2.32342L2.87485 9.7861C2.80444 9.86123 2.70771 10.0066 2.62088 10.1928C2.53562 10.3756 2.48441 10.5448 2.46905 10.6535L2.15226 13.4276C2.11575 13.7582 2.21841 13.9724 2.34289 14.0905C2.46683 14.208 2.68287 14.2981 3.00879 14.2419L3.00978 14.2418L5.7732 13.7698C5.8808 13.7503 6.0466 13.6919 6.22248 13.5979C6.40079 13.5025 6.53492 13.3997 6.60206 13.3261L6.60976 13.3177L13.662 5.85323C14.2364 5.2465 14.5555 4.69362 14.5925 4.1645C14.6271 3.66933 14.4235 3.02918 13.5595 2.21183C12.7003 1.40354 12.0523 1.23793 11.5599 1.30088C11.0339 1.36815 10.4994 1.71709 9.92533 2.32342Z" fill="#673AB7"/>
</svg>
