<svg width="16" height="16" viewBox="0 0 16 16" fill="none" xmlns="http://www.w3.org/2000/svg">
<path fill-rule="evenodd" clip-rule="evenodd" d="M11.3965 0.02286C12.3987 -0.105296 13.4126 0.304534 14.4429 1.27393L14.4441 1.27505C15.4778 2.25264 15.9484 3.24432 15.8778 4.25437C15.8096 5.23038 15.2438 6.05647 14.5986 6.73811M14.5986 6.73811L7.54991 14.1989C7.3512 14.4153 7.08364 14.5985 6.82998 14.7342C6.57307 14.8715 6.2759 14.9891 5.99691 15.0387L5.99262 15.0395L3.22771 15.5117C2.55723 15.6273 1.91428 15.4597 1.45628 15.0254C0.998912 14.5917 0.796807 13.9592 0.871679 13.2853L0.871899 13.2834L1.1911 10.4882C1.22817 10.2102 1.33143 9.90929 1.45315 9.64828C1.57444 9.3882 1.73992 9.11242 1.93576 8.90396L1.93701 8.90262L8.98919 1.43813C9.63474 0.756216 10.428 0.146701 11.3965 0.02286M9.92533 2.32345V2.32345L2.87485 9.78613V9.78613C2.80444 9.86126 2.70771 10.0066 2.62088 10.1928C2.53562 10.3757 2.48441 10.5448 2.46905 10.6535L2.15226 13.4276V13.4276C2.11575 13.7582 2.21841 13.9724 2.34289 14.0905C2.46683 14.208 2.68287 14.2982 3.00879 14.242L3.00978 14.2418L5.7732 13.7698C5.8808 13.7503 6.0466 13.6919 6.22248 13.5979C6.40079 13.5026 6.53492 13.3998 6.60206 13.3261L6.60976 13.3177L13.662 5.85326C14.2364 5.24653 14.5555 4.69365 14.5925 4.16453C14.6271 3.66936 14.4235 3.02921 13.5595 2.21186C12.7003 1.40357 12.0523 1.23796 11.5599 1.30091C11.0339 1.36818 10.4994 1.71712 9.92533 2.32345Z" fill="#676767"/>
</svg>
